<svg width="243.8" height="75.201" viewBox="0 0 243.8 75.201" xmlns="http://www.w3.org/2000/svg"><g id="svgGroup" stroke-linecap="round" fill-rule="evenodd" font-size="9pt" stroke="#000" stroke-width="0.55mm" fill="#1c3eff" style="stroke:#000;stroke-width:0.55mm;fill:#1c3eff"><path d="M 243.8 69 L 237.6 75 L 210.7 47.3 L 210.7 74 L 201.7 74 L 201.7 0 L 210.7 0 L 210.7 42.3 L 234.2 21 L 239.4 26.7 L 219.3 44.5 L 243.8 69 Z M 36.4 74 L 25.7 74 L 0 6.5 L 9.3 2.9 L 31.3 63.6 L 53.4 3.2 L 62 6.5 L 36.4 74 Z M 189.4 51.7 L 153 51.7 A 24.088 24.088 0 0 0 154.139 56.725 Q 155.475 60.538 158.1 63.1 Q 162.3 67.2 169.2 67.2 Q 173.7 67.2 177.3 66.25 Q 180.9 65.3 184.2 63.8 L 186.3 71.5 A 40.77 40.77 0 0 1 181.965 73.126 A 51.863 51.863 0 0 1 178.2 74.15 A 38.914 38.914 0 0 1 173.108 74.969 A 52.025 52.025 0 0 1 168.1 75.2 A 28.318 28.318 0 0 1 160.354 74.195 A 21.108 21.108 0 0 1 150.35 68.05 A 23.521 23.521 0 0 1 145.145 58.51 Q 143.8 53.845 143.8 48 A 35.359 35.359 0 0 1 144.633 40.178 A 28.84 28.84 0 0 1 146.75 34.05 A 24.642 24.642 0 0 1 151.766 26.968 A 22.887 22.887 0 0 1 155 24.35 A 21.048 21.048 0 0 1 165.259 20.878 A 26.205 26.205 0 0 1 167.3 20.8 Q 174.8 20.8 179.75 24.05 Q 184.7 27.3 187.2 32.8 A 28.185 28.185 0 0 1 189.626 42.664 A 33.434 33.434 0 0 1 189.7 44.9 A 75.204 75.204 0 0 1 189.409 51.597 A 69.426 69.426 0 0 1 189.4 51.7 Z M 119.3 74 L 109.9 74 L 89 24.4 L 97.2 21 L 114.9 63.8 L 132.6 21 L 140.3 24.4 L 119.3 74 Z M 80 74 L 71 74 L 71 22 L 80 22 L 80 74 Z M 152.9 44.4 L 181.4 44.4 A 24.355 24.355 0 0 0 180.996 39.815 Q 180.5 37.231 179.396 35.207 A 12.422 12.422 0 0 0 177.6 32.7 A 12.488 12.488 0 0 0 170.639 28.924 A 18.395 18.395 0 0 0 167.1 28.6 A 13.58 13.58 0 0 0 161.988 29.535 A 12.524 12.524 0 0 0 157.5 32.65 Q 153.7 36.7 152.9 44.4 Z M 71.137 11.288 A 5.973 5.973 0 0 0 75.5 13.1 A 8.175 8.175 0 0 0 76.996 12.969 A 5.647 5.647 0 0 0 80.1 11.35 Q 81.8 9.6 81.8 6.8 A 7.26 7.26 0 0 0 81.8 6.719 A 6.06 6.06 0 0 0 79.95 2.35 A 7.395 7.395 0 0 0 79.892 2.293 A 6.059 6.059 0 0 0 75.5 0.5 A 8.264 8.264 0 0 0 73.844 0.658 A 5.661 5.661 0 0 0 70.9 2.2 A 5.588 5.588 0 0 0 69.429 4.832 A 7.987 7.987 0 0 0 69.2 6.8 A 5.992 5.992 0 0 0 69.692 9.219 A 6.643 6.643 0 0 0 71.05 11.2 A 7.466 7.466 0 0 0 71.137 11.288 Z" vector-effect="non-scaling-stroke"/></g></svg>